<?xml version="1.0" encoding="UTF-8"?> <!-- Generator: Adobe Illustrator 24.3.0, SVG Export Plug-In . SVG Version: 6.00 Build 0) --> <svg xmlns="http://www.w3.org/2000/svg" xmlns:xlink="http://www.w3.org/1999/xlink" version="1.1" id="Layer_1" x="0px" y="0px" viewBox="0 0 231.7 37" style="enable-background:new 0 0 231.7 37;" xml:space="preserve"> <style type="text/css"> .st0{fill:#CA151E;} </style> <g id="Layer_1_1_"> </g> <g id="Layer_4"> <path class="st0" d="M231.7,7.7c0-4.2-3.4-7.7-7.7-7.7h-44.2c-4.2,0-7.7,3.4-7.7,7.7v21.6c0,4.2,3.4,7.7,7.7,7.7H224 c4.2,0,7.7-3.4,7.7-7.7V7.7z M200.9,10.3h-8.2v19.5h-4.1V10.3h-8.2V7.2H201v3.1H200.9z M215.2,29.8h-4.7l-7.3-22.6h4.5l3.1,10.3 c0.9,2.8,1.6,5.1,2.2,8.2h0.1c0.6-3.1,1.4-5.4,2.3-8.2l3.3-10.3h4.4L215.2,29.8z"></path> </g> <g id="Layer_5"> <g id="Page-1_1_"> <g id="PCWorld-España-De-IDG-logo_1_"> <g id="PC-World-ES-Logo-Copy_1_"> <path id="Fill-1-Copy_1_" class="st0" d="M152.9,34.5V1.8h-5.4v12c-1.4-0.9-2.9-1.4-5.1-1.4c-7,0-10.8,5.2-10.8,11.3 S135.3,35,142.4,35c2.4,0,3.8-0.6,5.4-1.7l0.1,1.2H152.9z M147.8,23.7c0,4.1-1.5,6.8-5,6.8s-5.5-2.8-5.5-6.8s2-6.9,5.5-6.9 C146.2,16.8,147.8,19.6,147.8,23.7L147.8,23.7z M130.8,35l0.5-4.5c-2.2,0-2.6,0-2.6-3.5V1.8h-5.5v27.4c0,3.1,1.7,5.7,5.6,5.7h2 V35z M120.2,17.5l1.1-5.1h-1.4c-2.5,0-4.7,1.5-5.8,2.7l-0.1-2.3h-5.1v21.7h5.4V19.7c0.6-1.2,2.2-2.2,4-2.2H120.2z M106.8,23.7 c0-6.1-4.1-11.3-11.1-11.3s-11.1,5.2-11.1,11.3S88.7,35,95.7,35S106.8,29.8,106.8,23.7L106.8,23.7z M101.2,23.7 c0,4.1-2,6.8-5.5,6.8s-5.5-2.8-5.5-6.8s2-6.9,5.5-6.9S101.2,19.6,101.2,23.7L101.2,23.7z M78.8,34.5l9-30.5H82l-5.9,21.1L70,4 h-3.9l-5.9,21.7L54.1,4h-5.9l8.7,30.5h5.6l5.6-19.9l5.6,19.9H78.8z M29.1,19.3c0-6.1,3-10.5,9-10.5c3.2,0,5.6,0.7,8.1,1.7 l0.6-5.3c-2.2-1.1-5.5-1.8-8.7-1.8C29.3,3.4,23,9.7,23,19.3s6.4,15.9,15.1,15.9c3.2,0,6.5-0.7,8.7-1.8l-0.6-5.3 c-2.5,1-4.9,1.7-8.1,1.7C32.2,29.8,29.1,25.4,29.1,19.3L29.1,19.3z M21.9,13.7C21.9,5.3,17.2,4,8.7,4H0v30.5h5.6v-10h5.5 C15.5,24.5,21.9,22.5,21.9,13.7L21.9,13.7z M16.2,13.7c0,4.1-1.7,5.5-5.8,5.5H5.7V8.7h4.5C14.9,8.7,16.2,10.2,16.2,13.7 L16.2,13.7z"></path> </g> </g> </g> </g> </svg> 