<?xml version="1.0" encoding="utf-8"?>
<!-- Generator: Adobe Illustrator 24.0.3, SVG Export Plug-In . SVG Version: 6.00 Build 0)  -->
<svg version="1.1" id="Layer_1" xmlns="http://www.w3.org/2000/svg" xmlns:xlink="http://www.w3.org/1999/xlink" x="0px" y="0px"
	 viewBox="0 0 119.2 119.2" style="enable-background:new 0 0 119.2 119.2;" xml:space="preserve">
<style type="text/css">
	.st0{fill:#FFFFFF;}
</style>
<g>
	<path class="st0" d="M59.6,119.2C26.7,119.2,0,92.4,0,59.6C0,26.7,26.7,0,59.6,0c32.9,0,59.6,26.7,59.6,59.6
		C119.2,92.4,92.4,119.2,59.6,119.2z M59.6,2.8C28.3,2.8,2.8,28.3,2.8,59.6c0,31.3,25.5,56.7,56.7,56.7c31.3,0,56.7-25.5,56.7-56.7
		C116.3,28.3,90.9,2.8,59.6,2.8z"/>
	<path class="st0" d="M46.5,89.8V29.3l39.8,30.2L46.5,89.8z M49.4,35v49.1l32.3-24.5L49.4,35z"/>
</g>
</svg>
