<svg xmlns="http://www.w3.org/2000/svg" id="Layer_1" x="0" y="0" viewBox="0 0 190 190" xml:space="preserve"><style>.st0{fill:#fff}</style><path class="st0" d="M44.1 94L23.3 73.2c-.5-.5-1.5-.5-2 0L.4 94c-.6.6-.6 1.5 0 2l20.9 20.9c.3.3.6.4 1 .4s.7-.1 1-.4L44.1 96c.6-.5.6-1.4 0-2zm-21.8 19.9L3.4 95l18.9-18.9L41.1 95l-18.8 18.9zM94 70.8L70.3 94.5c-.3.3-.4.6-.4 1s.1.7.4 1L94 120.2c.3.3.6.4 1 .4s.7-.1 1-.4l23.7-23.7c.6-.6.6-1.5 0-2L96 70.8c-.5-.5-1.5-.5-2 0zm1 46.4L73.3 95.5 95 73.9l21.7 21.7L95 117.2z"></path><path class="st0" d="M57.4 80.8c.6.6 1.5.6 2 0L95 45.1l35.6 35.6c.3.3.6.4 1 .4s.7-.1 1-.4l20.9-20.9c.6-.6.6-1.5 0-2L96 .4c-.6-.6-1.5-.6-2 0L36.5 57.9c-.6.6-.6 1.5 0 2l20.9 20.9zM95 3.4l55.5 55.5-18.9 18.9L96 42.1c-.5-.5-1.5-.5-2 0L58.4 77.7 39.5 58.9 95 3.4zM189.6 94l-20.9-20.9c-.5-.5-1.5-.5-2 0L145.9 94c-.3.3-.4.6-.4 1s.1.7.4 1l20.9 20.9c.3.3.6.4 1 .4s.7-.1 1-.4L189.6 96c.5-.6.5-1.5 0-2zm-21.9 19.8L148.9 95l18.9-18.9L186.6 95l-18.9 18.8zM132.6 109.2c-.6-.6-1.5-.6-2 0L95 144.9l-35.6-35.6c-.6-.6-1.5-.6-2 0l-20.9 20.9c-.6.6-.6 1.5 0 2L57.4 153 94 189.6c.3.3.6.4 1 .4s.7-.1 1-.4l57.5-57.5c.6-.6.6-1.5 0-2l-20.9-20.9zM95 186.6L59.4 151l-19.9-19.9 18.9-18.9L94 147.9c.5.5 1.5.5 2 0l35.6-35.6 18.9 18.9L95 186.6z"></path></svg>