<svg xmlns="http://www.w3.org/2000/svg" id="Layer_1" x="0" y="0" viewBox="0 0 117.4 189.3" xml:space="preserve"><style>.st1,.st2{display:inline;fill:none}.st2{fill:#4d4d4d}.st3{fill:#fff}</style><path class="st3" d="M117.4 96.2v-.1-.1-.1s0-.1-.1-.1v-.1L59.9.7V.6l-.1-.1s0-.1-.1-.1c0 0-.1 0-.1-.1 0 0-.1 0-.1-.1h-.1-.1-.1-.1-.1-.1-.1-.1-.1-.1-.1-.1-.1-.1-.1-.1-.1-.1s-.1 0-.1.1c0 0-.1 0-.1.1 0 0 0 .1-.1.1l-.1.1v.1L.2 95.5v.1s0 .1-.1.1V96.5s0 .1.1.1c0 0 0 .1.1.1l.1.1.1.1s0 .1.1.1l.1.1h.1L58 131h.1c.1 0 .1.1.2.1H59.1c.1 0 .2-.1.2-.1h.1l57.3-33.6h.1l.1-.1s0-.1.1-.1l.1-.1.1-.1.1-.1s0-.1.1-.1v-.1-.1-.1-.1-.2zM60.1 69.3V6.5L112.4 93 60.1 69.3zm-2.8 0L5 93 57.3 6.5v62.8zm0 3.1v55l-52.8-31 52.8-24zm2.8 0l52.8 24-52.8 31v-55z"></path><path class="st3" d="M115.3 106.7l-56.6 33.2-56.6-33.2c-.6-.3-1.3-.2-1.8.3s-.5 1.2-.1 1.8l57.3 80c0 .1.1.1.2.2 0 0 .1 0 .1.1 0 0 .1 0 .1.1 0 0 .1 0 .1.1 0 0 .1 0 .1.1h1s.1 0 .1-.1c0 0 .1 0 .1-.1 0 0 .1 0 .1-.1 0 0 .1 0 .1-.1l.2-.2 57.3-80c.4-.5.3-1.3-.1-1.8-.3-.5-1-.6-1.6-.3zm-58 35.7v41.1l-50.8-71 50.8 29.9zm2.8 41.1v-41.1l50.8-29.8-50.8 70.9z"></path></svg>